<?xml version="1.0" encoding="utf-8"?>
<!-- Svg Vector Icons : http://www.onlinewebfonts.com/icon -->
<!DOCTYPE svg PUBLIC "-//W3C//DTD SVG 1.1//EN" "http://www.w3.org/Graphics/SVG/1.1/DTD/svg11.dtd">
<svg version="1.1" xmlns="http://www.w3.org/2000/svg" x="0px" y="0px" viewBox="0 0 1000 1000"
     enable-background="new 0 0 1000 1000" xml:space="preserve">
<metadata> Svg Vector Icons : http://www.onlinewebfonts.com/icon </metadata>
    <g><path fill="#9fafbc" d="M749.8,401.8H248.7c-11.1,0.4-22.2-4.1-30.6-14c-16.2-18.9-16.2-49.7,0-68.7L469.9,24.2c16.2-18.9,42.4-18.9,58.7,0l251.8,294.9c16.2,19,16.2,49.7,0,68.7C772,397.8,760.9,402.2,749.8,401.8z M250.2,598.3h501.1c11.1-0.4,22.2,4.1,30.7,13.9c16.2,18.9,16.2,49.7,0,68.7L530.1,975.8c-16.2,18.9-42.4,18.9-58.7,0L219.6,680.9c-16.2-19-16.2-49.7,0-68.7C228,602.3,239.1,597.9,250.2,598.3z"/></g>
</svg>